<svg xmlns="http://www.w3.org/2000/svg" xmlns:xlink="http://www.w3.org/1999/xlink" width="500" zoomAndPan="magnify" viewBox="0 0 375 374.999991" height="500" preserveAspectRatio="xMidYMid meet" version="1.0"><defs><clipPath id="5e78e96afa"><path d="M 47.265625 37.5 L 327.765625 37.5 L 327.765625 318 L 47.265625 318 Z M 47.265625 37.5 " clip-rule="nonzero"/></clipPath></defs><rect x="-37.5" width="450" fill="#ffffff" y="-37.499999" height="449.999989" fill-opacity="1"/><rect x="-37.5" width="450" fill="#ffffff" y="-37.499999" height="449.999989" fill-opacity="1"/><rect x="-37.5" width="450" fill="#ffffff" y="-37.499999" height="449.999989" fill-opacity="1"/><g clip-path="url(#5e78e96afa)"><path fill="#69282a" d="M 187.515625 37.5 C 216.777344 37.5 243.949219 46.472656 266.433594 61.804688 C 282.40625 56.746094 303.585938 56.789062 319.464844 61.25 C 303.953125 61.804688 289.730469 64.683594 276.585938 69.417969 L 276.585938 69.421875 C 230.128906 86.160156 197.183594 126.082031 168.667969 168.566406 C 142.875 206.988281 114.273438 241.382812 80.574219 268.464844 C 59.804688 244.007812 47.265625 212.339844 47.265625 177.75 C 47.265625 100.304688 110.070312 37.5 187.515625 37.5 Z M 95.207031 283.335938 C 81.746094 287.46875 67.042969 289.695312 50.820312 289.550781 C 70.386719 294.71875 89.207031 295.378906 107.515625 292.953125 C 103.230469 289.972656 99.125 286.761719 95.207031 283.335938 Z M 290.621094 82.695312 C 313.675781 107.6875 327.765625 141.074219 327.765625 177.75 C 327.765625 255.191406 264.960938 318 187.515625 318 C 152.171875 318 119.878906 304.914062 95.214844 283.328125 C 153.175781 265.511719 188.058594 212.28125 221.695312 160.59375 C 243.554688 126.996094 266.730469 102.386719 290.621094 82.695312 Z M 160.628906 143.257812 L 160.628906 89.851562 L 116.195312 89.851562 L 116.195312 203.804688 C 128.796875 188.828125 140.414062 173.003906 151.242188 156.871094 C 154.324219 152.285156 157.449219 147.738281 160.628906 143.257812 Z M 208.144531 217.710938 L 232.621094 257.523438 L 286.015625 257.121094 L 234.363281 179.570312 C 225.816406 192.601562 217.175781 205.457031 208.144531 217.710938 Z M 208.144531 217.710938 " fill-opacity="1" fill-rule="evenodd"/></g></svg>